<svg version="1" xmlns="http://www.w3.org/2000/svg" width="682.667" height="682.667" viewBox="0 0 512.000000 512.000000"><path d="M0 256v256h512V0H0v256zM408 99.8c1.8 1.5 2.4 3.3 3 10.2 5.1 50.3 5.9 110.7 2.2 148.5-4.4 44.2-11.2 83.1-17.1 98-7.6 19-18.2 34-29.7 41.8-8.8 6-16.8 8.8-27 9.4-14.3 1-28.9-4-40.7-13.7-5.5-4.5-24.2-24.5-31.3-33.5-13.4-17-28.7-41.3-46.3-73.5-6.2-11.3-11.6-20.9-12.1-21.4-1.4-1.4-3.6 4.5-8.1 21.4-13.6 51.7-35.5 110-45.2 120.3-8.6 9.1-16.7 8.7-26.9-1.5-15.6-15.6-28.6-58.4-31.9-105.3-2.4-34 2.2-81.9 11.2-116.5 3.8-14.9 5.2-17.8 8.5-18.6 5-1.3 13.4 5.3 13.4 10.4 0 1.1-1.1 3.3-2.3 4.9-5.9 7.1-14.1 54.2-15.3 88.2-1 28.3 2.6 62.1 9.1 84.6 6.3 21.5 14.4 38.8 19.7 41.6 4.1 2.2 7.2-2.3 17.3-25.6 12.3-28.5 25.8-66.9 34.5-98 3.8-13.7 4.5-15.3 8-18.8 3.3-3.1 4.6-3.7 8.3-3.7 2.9 0 5.3.7 7 2 1.4 1.1 6.3 9.1 10.8 17.8 22.8 43.4 43.2 73.8 68.3 101.5 9.2 10.2 17.2 16.7 25.3 20.5 5 2.3 7.1 2.7 15.3 2.7 8.3 0 10.3-.4 15.3-2.7 10.9-5.1 23.9-21.1 29.8-36.8 6.3-16.6 13.7-59.3 18.5-107 2.6-24.7 2.6-90 .1-118.9-1.9-21.6-1.8-24.6 1.4-28 2.4-2.6 4-2.6 6.9-.3z"/></svg>